<svg class="rc-svg-logo" xmlns="http://www.w3.org/2000/svg" width="196" height="97" viewBox="0 0 196 97">
    <title>Restaurant Collective Logo</title>
    <g class="rc-svg-logo-group" fill="currentColor">
        <path class="rc-svg-logo-circles"
                d="M87.5 18C88.8 19.5 88.6 21.8 87 23.1 85.5 24.3 83.1 24.1 81.8 22.6 74 13.3 62.4 7.9 49.8 7.9 26.8 7.9 8.2 26.2 8.2 48.7 8.2 71.3 26.8 89.6 49.8 89.6 62.5 89.6 74.2 84 82 74.6 83.3 73.1 85.6 72.9 87.2 74.1 88.8 75.4 89 77.7 87.7 79.2 78.5 90.2 64.7 96.8 49.8 96.8 22.8 96.8 0.8 75.3 0.8 48.7 0.8 22.2 22.8 0.7 49.8 0.7 64.6 0.7 78.3 7.1 87.5 18ZM73.1 27.8C74.5 29.3 74.4 31.6 72.9 32.9 71.4 34.3 69 34.1 67.7 32.7 63.1 27.7 56.6 24.8 49.7 24.8 36.2 24.8 25.3 35.5 25.3 48.7 25.3 61.9 36.2 72.6 49.7 72.6 56.5 72.6 62.8 69.9 67.4 65.1 68.8 63.6 71.1 63.6 72.6 64.9 74.1 66.3 74.1 68.6 72.7 70 66.8 76.2 58.5 79.8 49.7 79.8 32.2 79.8 18 65.9 18 48.7 18 31.5 32.2 17.6 49.7 17.6 58.7 17.6 67.2 21.4 73.1 27.8Z" opacity="0.4"/>
        <path class="rc-svg-logo-text"
              d="M98.1 60.9L97 61.9C96.4 61.2 95.6 60.7 94.3 60.7 91.8 60.7 90.8 62.3 90.8 64.3 90.8 66.2 91.8 67.7 94.3 67.7 95.6 67.7 96.4 67.3 97.1 66.5L98.1 67.5C97.2 68.5 95.9 69 94.3 69 91 69 89.3 67.1 89.3 64.3 89.3 61.5 91.1 59.5 94.3 59.5 96 59.5 97.2 60 98.1 60.9ZM108.7 64.3C108.7 62.4 107.8 60.7 105.4 60.7 103.1 60.7 102.2 62.3 102.2 64.3 102.2 66.2 103.1 67.7 105.4 67.7 107.8 67.7 108.7 66.2 108.7 64.3ZM110.2 64.3C110.2 67.1 108.5 69 105.4 69 102.3 69 100.7 67.1 100.7 64.3 100.7 61.5 102.3 59.5 105.4 59.5 108.6 59.5 110.2 61.5 110.2 64.3ZM120.4 67.6L120.4 68.9 113.5 68.9 113.5 59.6 114.9 59.6 114.9 67.5 114.8 67.6 120.4 67.6ZM130.2 67.6L130.2 68.9 123.2 68.9 123.2 59.6 124.7 59.6 124.7 67.5 124.5 67.6 130.2 67.6ZM140.5 67.6L140.5 68.9 133 68.9 133 59.6 140.5 59.6 140.5 60.8 134.3 60.8 134.4 61 134.4 63.4 134.3 63.6 139.9 63.6 139.9 64.9 134.3 64.9 134.4 65 134.4 67.5 134.3 67.6 140.5 67.6ZM152.4 60.9L151.3 61.9C150.6 61.2 149.8 60.7 148.5 60.7 146.1 60.7 145 62.3 145 64.3 145 66.2 146 67.7 148.5 67.7 149.8 67.7 150.6 67.3 151.3 66.5L152.3 67.5C151.4 68.5 150.2 69 148.5 69 145.2 69 143.5 67.1 143.5 64.3 143.5 61.5 145.3 59.5 148.5 59.5 150.2 59.5 151.4 60 152.4 60.9ZM162.9 59.6L162.9 60.8 159.3 60.8 159.4 61 159.4 68.9 157.9 68.9 157.9 61 158 60.8 154.5 60.8 154.5 59.6 162.9 59.6ZM167.2 59.6L167.2 68.9 165.8 68.9 165.8 59.6 167.2 59.6ZM178.4 59.6L180 59.6 175.8 68.9 174.3 68.9 170.1 59.6 171.7 59.6 174.7 66.4 175 67.3 175.1 67.3 175.4 66.4 178.4 59.6ZM190.3 67.6L190.3 68.9 182.8 68.9 182.8 59.6 190.3 59.6 190.3 60.8 184.1 60.8 184.3 61 184.3 63.4 184.1 63.6 189.8 63.6 189.8 64.9 184.1 64.9 184.3 65 184.3 67.5 184.1 67.6 190.3 67.6ZM48 46.6C48 45 47.1 44.3 45.7 44.3L41 44.3 41.6 44.9 41.6 47.7 41 48.3 45.1 48.3C47.2 48.3 48 47.3 48 46.6ZM50.3 51.1L53.2 55.7 49.8 55.7 47.4 51.7C46.8 50.8 46 50.3 43.9 50.6L41 50.6 41.6 50.6 41.6 55.7 38.1 55.7 38.1 41.4 45.7 41.4C48.7 41.4 51.6 42.8 51.5 46 51.6 47.4 50.3 48.8 49.2 49.4 49.4 49.6 50.1 50.1 50.3 51.1ZM67.2 52.8L67.2 55.7 54.4 55.7 54.4 41.4 67.2 41.4 67.2 44.3 57.3 44.3 57.9 44.3 57.9 47.1 57.3 47.1 66 47.1 66 50 57.3 50 57.9 50 57.9 52.8 57.3 52.8 67.2 52.8ZM82.9 51.7C82.9 54.2 80.8 56.3 75.9 56.3 73.4 56.3 70.8 55.4 68.9 54L71.2 51.7C72.7 52.9 74.5 53.6 76.5 53.4 78.7 53.6 79.6 52.8 79.4 52.3 79.6 51.5 79.2 50.8 77 50.6 76.9 50.3 74.8 49.8 74.1 50 71.7 49 69.3 48.1 69.5 45.4 69.3 43.3 71.6 41.4 75.9 41.4 78.6 41.4 80.9 42.3 82.3 43.7L80.5 46C79.3 44.9 77.7 44.1 75.9 44.3 73.4 44.1 72.5 44.9 72.4 45.4 72.5 46.2 73.2 46.5 75.9 47.1 76 47.2 77.8 47.6 78.2 47.7 81.3 48.5 82.9 50 82.9 51.7ZM98 41.4L98 44.3 92.1 44.3 92.7 44.3 92.7 55.7 89.2 55.7 89.2 44.3 89.8 44.3 84 44.3 84 41.4 98 41.4ZM102.6 50L107.2 50 106.7 50 105.5 46.6 104.9 45.4 104.3 46.6 103.2 50 102.6 50ZM106.1 41.4L113.6 55.7 110.1 55.7 108.4 52.8 109 52.3 100.9 52.3 101.4 52.8 99.7 55.7 96.2 55.7 103.8 41.4 106.1 41.4ZM129.3 41.4L129.3 49.4C129.3 53.7 127 56.3 122.3 56.3 117.1 56.3 114.8 53.7 114.8 49.4L114.8 41.4 118.3 41.4 118.3 49.4C118 52.1 119.1 53.5 121.8 53.4 125 53.5 126.1 52.1 125.8 49.4L125.8 41.4 129.3 41.4ZM142.1 46.6C142.1 45 141.2 44.3 139.8 44.3L135.1 44.3 135.7 44.9 135.7 47.7 135.1 48.3 139.2 48.3C141.3 48.3 142.1 47.3 142.1 46.6ZM144.4 51.1L147.3 55.7 143.8 55.7 141.5 51.7C140.9 50.8 140 50.3 138 50.6L135.1 50.6 135.7 50.6 135.7 55.7 132.2 55.7 132.2 41.4 139.8 41.4C142.8 41.4 145.6 42.8 145.6 46 145.6 47.4 144.4 48.8 143.2 49.4 143.5 49.6 144.1 50.1 144.4 51.1ZM153.1 50L157.8 50 157.2 50 156 46.6 155.4 45.4 154.9 46.6 153.7 50 153.1 50ZM156.6 41.4L164.2 55.7 160.7 55.7 158.9 52.8 159.5 52.3 151.4 52.3 152 52.8 150.2 55.7 146.7 55.7 154.3 41.4 156.6 41.4ZM179.8 41.4L179.8 55.7 176.9 55.7 170.5 47.7 169.4 46 169.4 55.7 165.9 55.7 165.9 41.4 168.8 41.4 175.8 49.4 176.3 51.1 176.3 41.4 179.8 41.4ZM195.5 41.4L195.5 44.3 189.7 44.3 190.3 44.3 190.3 55.7 186.8 55.7 186.8 44.3 187.4 44.3 181.6 44.3 181.6 41.4 195.5 41.4Z"/>
    </g>
</svg>
