
<svg width="421px" height="461px" viewBox="0 0 421 461" xmlns="http://www.w3.org/2000/svg">
    <g id="rdl-icon-" stroke="none" stroke-width="1" fill="none" fill-rule="evenodd">
        <g id="Hex-Icon" fill="#FF5720" fill-rule="nonzero">
            <path d="M272.375643,372.069927 L160,307.107094 L160,379.111252 L198.037973,401.079958 C205.496987,405.387887 214.686871,405.387887 222.145885,401.079958 L272.375643,372.069927 Z M120,356.009384 L120,223.377978 L55.9256231,260.420524 L55.9256231,305.079994 C55.9256231,313.695852 60.5205652,321.657233 67.9795791,325.965162 L120,356.009384 Z M55.9256231,214.458867 L171.84325,147.444809 L108.271434,110.694805 L67.9795791,133.965233 C60.5205652,138.273162 55.9256231,146.234543 55.9256231,154.850401 L55.9256231,214.458867 Z M148.059924,87.7150936 L262,153.582305 L262,81.8680491 L222.145885,58.8504362 C214.686871,54.5425073 205.496987,54.5425073 198.037973,58.8504362 L148.059924,87.7150936 Z M302,104.969917 L302,238.353884 L364.258235,202.363243 L364.258235,154.850401 C364.258235,146.234543 359.663293,138.273162 352.204279,133.965233 L302,104.969917 Z M364.258235,248.344141 L251.073629,313.774625 L312.164133,349.090216 L352.204279,325.965162 C359.663293,321.657233 364.258235,313.695852 364.258235,305.079994 L364.258235,248.344141 Z M160,200.253261 L160,261.126196 L211.303713,290.784176 L262,261.477341 L262,199.563202 L211.595441,170.425011 L160,200.253261 Z M250.75678,10.7526144 L380.870448,85.8733111 C405.702701,100.21013 421,126.705665 421,155.379303 L421,305.620697 C421,334.294335 405.702701,360.78987 380.870448,375.126689 L250.75678,450.247386 C225.924527,464.584205 195.32993,464.584205 170.497677,450.247386 L40.3840087,375.126689 C15.5517558,360.78987 0.254457131,334.294335 0.254457131,305.620697 L0.254457131,155.379303 C0.254457131,126.705665 15.5517558,100.21013 40.3840087,85.8733111 L170.497677,10.7526144 C195.32993,-3.58420481 225.924527,-3.58420481 250.75678,10.7526144 Z" id="Combined-Shape"></path>
        </g>
    </g>
</svg>
