<?xml version="1.0" encoding="UTF-8"?>
<svg width="512px" height="512px" viewBox="0 0 512 512" version="1.1" xmlns="http://www.w3.org/2000/svg" xmlns:xlink="http://www.w3.org/1999/xlink">
    <!-- Generator: Sketch 52.6 (67491) - http://www.bohemiancoding.com/sketch -->
    <title>icon-512</title>
    <desc>Created with Sketch.</desc>
    <g id="icon-512" stroke="none" stroke-width="1" fill="none" fill-rule="evenodd">
        <g id="rc-icon">
            <circle id="Oval" fill="#00A69B" cx="256" cy="256" r="255.488"></circle>
            <path d="M256,115.2768 C293.5872,115.2768 328.928,129.9136 355.5072,156.4928 C382.0864,183.072 396.7232,218.4128 396.7232,256 C396.7232,293.5872 382.0864,328.928 355.5072,355.5072 C328.928,382.0864 293.5872,396.7232 256,396.7232 C218.4128,396.7232 183.072,382.0864 156.4928,355.5072 C129.9136,328.928 115.2768,293.5872 115.2768,256 C115.2768,218.4128 129.9136,183.072 156.4928,156.4928 C183.072,129.9136 218.4128,115.2768 256,115.2768 Z M256,83.2768 C160.608,83.2768 83.2768,160.608 83.2768,256 C83.2768,351.392 160.608,428.7232 256,428.7232 C351.392,428.7232 428.7232,351.392 428.7232,256 C428.7232,160.608 351.392,83.2768 256,83.2768 Z" id="Shape" fill="#FFFFFF" fill-rule="nonzero"></path>
            <path d="M256,178.048 C276.8192,178.048 296.3968,186.1568 311.1232,200.8768 C325.8496,215.6032 333.952,235.1744 333.952,256 C333.952,276.8256 325.8432,296.3968 311.1232,311.1232 C296.3968,325.8496 276.8256,333.952 256,333.952 C235.1744,333.952 215.6032,325.8432 200.8768,311.1232 C186.1504,296.3968 178.048,276.8256 178.048,256 C178.048,235.1744 186.1568,215.6032 200.8768,200.8768 C215.6032,186.1568 235.1808,178.048 256,178.048 Z M256,146.048 C195.2768,146.048 146.048,195.2768 146.048,256 C146.048,316.7232 195.2768,365.952 256,365.952 C316.7232,365.952 365.952,316.7232 365.952,256 C365.952,195.2768 316.7232,146.048 256,146.048 Z" id="Shape" fill="#FFFFFF" fill-rule="nonzero"></path>
        </g>
    </g>
</svg>