<?xml version="1.0" encoding="UTF-8"?><svg id="a" xmlns="http://www.w3.org/2000/svg" viewBox="0 0 24 28.39"><path d="M12,8.34c-.98,0-1.9,.38-2.59,1.07-.69,.69-1.07,1.61-1.07,2.59s.38,1.9,1.07,2.59c.69,.69,1.61,1.07,2.59,1.07s1.9-.38,2.59-1.07c.69-.69,1.07-1.61,1.07-2.59s-.38-1.9-1.07-2.59c-.69-.69-1.61-1.07-2.59-1.07Z" fill="#ff4e20"/><path d="M12,5.39c-1.77,0-3.43,.69-4.67,1.94-1.25,1.25-1.94,2.91-1.94,4.67s.69,3.43,1.94,4.67c1.25,1.25,2.91,1.94,4.67,1.94s3.43-.69,4.67-1.94,1.94-2.91,1.94-4.67-.69-3.43-1.94-4.67-2.91-1.94-4.67-1.94Zm0,11.77c-2.85,0-5.16-2.31-5.16-5.16s2.31-5.16,5.16-5.16,5.16,2.31,5.16,5.16-2.31,5.16-5.16,5.16Z" fill="#ff4e20"/><path d="M24,12C24,5.37,18.63,0,12,0S0,5.37,0,12c0,5.69,3.97,10.46,9.29,11.69l2.71,4.7,2.71-4.7c5.32-1.23,9.29-5.99,9.29-11.69Zm-12,8.11c-4.48,0-8.11-3.63-8.11-8.11S7.52,3.89,12,3.89s8.11,3.63,8.11,8.11-3.63,8.11-8.11,8.11Z" fill="#ff4e20"/></svg>