<svg viewBox="0 0 544 240" xmlns="http://www.w3.org/2000/svg">
    <g id="rdl-logo-short--copy" stroke="none" stroke-width="1" fill="none" fill-rule="evenodd">
        <g id="Group" fill="#FFFFFF">
            <path d="M268.984199,134.085714 L268.984199,174.371429 C268.984199,177.971429 267.954106,179 264.348779,179 L245.635419,179 C242.030093,179 241,177.971429 241,174.371429 L241,63.6285714 C241,60.0285714 242.030093,59 245.635419,59 L292.332978,59 C311.904749,59 335.596893,68.7714286 335.596893,96.5428571 C335.596893,116.6 323.235774,127.4 308.814469,131.685714 L335.768575,173 C338.000443,176.428571 336.455304,179 331.819884,179 L312.934842,179 C309.329516,179 307.269329,177.628571 305.037461,174.371429 L278.770084,134.085714 L268.984199,134.085714 Z M268.984199,109.571429 L289.757745,109.571429 C301.775499,109.571429 307.269329,105.457143 307.269329,96.5428571 C307.269329,87.6285714 301.775499,83.5142857 289.757745,83.5142857 L268.984199,83.5142857 L268.984199,109.571429 Z M349.922814,59 L393.873458,59 C428.553262,59 455.507368,84.0285714 455.507368,119 C455.507368,153.971429 428.553262,179 393.873458,179 L349.922814,179 C346.317488,179 345.287395,177.971429 345.287395,174.371429 L345.287395,63.6285714 C345.287395,60.0285714 346.317488,59 349.922814,59 Z M393.873458,83.5142857 L373.271594,83.5142857 L373.271594,154.485714 L393.873458,154.485714 C415.677097,154.485714 427.179805,138.542857 427.179805,119 C427.179805,99.4571429 415.677097,83.5142857 393.873458,83.5142857 Z M491.980293,155.342857 L539.364581,155.342857 C542.969907,155.342857 544,156.371429 544,159.971429 L544,174.371429 C544,177.971429 542.969907,179 539.364581,179 L468.631514,179 C465.026188,179 463.996094,177.971429 463.996094,174.371429 L463.996094,63.6285714 C463.996094,60.0285714 465.026188,59 468.631514,59 L487.344874,59 C490.9502,59 491.980293,60.0285714 491.980293,63.6285714 L491.980293,155.342857 Z" id="RDL"></path>
            <g id="Hex-Icon" fill-rule="nonzero">
                <path d="M142.109031,194.12344 L83.4782609,160.229788 L83.4782609,197.797175 L103.32416,209.259109 C107.215819,211.506724 112.010541,211.506724 115.902201,209.259109 L142.109031,194.12344 Z M62.6086957,185.744027 L62.6086957,116.545032 L29.178586,135.871578 L29.178586,159.172171 C29.178586,163.667401 31.575947,167.821165 35.4676065,170.06878 L62.6086957,185.744027 Z M29.178586,111.891583 L89.6573478,76.9277264 L56.4894438,57.7538113 L35.4676065,69.8949041 C31.575947,72.1425192 29.178586,76.2962832 29.178586,80.7915133 L29.178586,111.891583 Z M77.2486561,45.7643967 L136.695652,80.1298983 L136.695652,42.7137647 L115.902201,30.7045754 C112.010541,28.4569603 107.215819,28.4569603 103.32416,30.7045754 L77.2486561,45.7643967 Z M157.565217,54.7669133 L157.565217,124.358548 L190.047775,105.580823 L190.047775,80.7915133 C190.047775,76.2962832 187.650414,72.1425192 183.758754,69.8949041 L157.565217,54.7669133 Z M190.047775,129.570856 L130.994937,163.7085 L162.868243,182.134026 L183.758754,170.06878 C187.650414,167.821165 190.047775,163.667401 190.047775,159.172171 L190.047775,129.570856 Z M83.4782609,104.479962 L83.4782609,136.239754 L110.245416,151.713483 L136.695652,136.422961 L136.695652,104.119932 L110.397622,88.9173972 L83.4782609,104.479962 Z M130.829624,5.6100597 L198.715017,44.8034666 C211.670975,52.2835462 219.652174,66.1073034 219.652174,81.0674626 L219.652174,159.454277 C219.652174,174.414436 211.670975,188.238193 198.715017,195.718272 L130.829624,234.911679 C117.873666,242.391759 101.911268,242.391759 88.9553097,234.911679 L21.0699176,195.718272 C8.11395954,188.238193 0.132760242,174.414436 0.132760242,159.454277 L0.132760242,81.0674626 C0.132760242,66.1073034 8.11395954,52.2835462 21.0699176,44.8034666 L88.9553097,5.6100597 C101.911268,-1.8700199 117.873666,-1.8700199 130.829624,5.6100597 Z" id="Combined-Shape"></path>
            </g>
        </g>
    </g>
</svg>
