
<svg viewBox="0 0 206 89" xmlns="http://www.w3.org/2000/svg">
    <g id="rdl-logo-" stroke="none" stroke-width="1" fill="none" fill-rule="evenodd">
        <path d="M96.356,50.494 L96.356,65.551 C96.356,66.685 96.041,67 94.907,67 L89.678,67 C88.607,67 88.292,66.685 88.292,65.551 L88.292,24.286 C88.292,23.215 88.607,22.9 89.678,22.9 L106.31,22.9 C113.681,22.9 121.871,26.491 121.871,36.697 C121.871,44.635 116.957,48.541 111.35,49.927 L121.682,65.236 C122.438,66.307 121.934,67 120.611,67 L115.067,67 C113.933,67 113.303,66.559 112.61,65.551 L102.404,50.494 L96.356,50.494 Z M96.356,43.249 L105.491,43.249 C111.665,43.249 113.744,40.54 113.744,36.634 C113.744,32.728 111.665,30.145 105.491,30.145 L96.356,30.145 L96.356,43.249 Z M131.762,22.9 L147.638,22.9 C160.301,22.9 169.94,32.098 169.94,44.95 C169.94,57.802 160.301,67 147.638,67 L131.762,67 C130.691,67 130.376,66.685 130.376,65.551 L130.376,24.286 C130.376,23.215 130.691,22.9 131.762,22.9 Z M147.575,30.145 L138.44,30.145 L138.44,59.755 L147.575,59.755 C156.395,59.755 161.813,53.203 161.813,44.95 C161.813,36.697 156.395,30.145 147.575,30.145 Z M185.942,59.881 L205.094,59.881 C206.165,59.881 206.48,60.196 206.48,61.33 L206.48,65.551 C206.48,66.685 206.165,67 205.094,67 L179.264,67 C178.193,67 177.878,66.685 177.878,65.551 L177.878,24.286 C177.878,23.215 178.193,22.9 179.264,22.9 L184.493,22.9 C185.627,22.9 185.942,23.215 185.942,24.286 L185.942,59.881 Z" id="RDL" fill="#FFFFFF"></path>
        <path d="M8.68364611,52.585823 L8.68364611,62.1211583 L22.3833333,69.9548028 L22.3833333,44.7389685 L8.68364611,52.585823 Z M31.1611111,74.9740408 L39.4999999,79.7423168 L53.4336601,71.7748839 L31.1611111,59.0172999 L31.1611111,74.9740408 Z M62.2071253,66.7581119 L70.3163539,62.1211583 L70.3163539,46.3840092 L48.4768987,58.8935196 L62.2071253,66.7581119 Z M70.3163539,36.3418484 L70.3163539,26.8788415 L56.6166667,19.0451972 L56.6166667,44.188948 L70.3163539,36.3418484 Z M47.8388889,14.0259593 L39.4999999,9.25768322 L25.9553975,17.0026483 L47.8388889,29.5373823 L47.8388889,14.0259593 Z M17.1819323,22.0194202 L8.68364611,26.8788415 L8.68364611,42.5437406 L30.8491033,29.8478947 L17.1819323,22.0194202 Z M79,24.5950428 L79,64.4049573 C79,66.0805633 78.0984627,67.6288875 76.6349883,68.4666904 L41.8650116,88.3716478 C40.4015373,89.2094507 38.5984626,89.2094507 37.1349883,88.3716478 L2.36501166,68.4666904 C0.901537351,67.6288875 7.10542736e-15,66.0805633 7.10542736e-15,64.4049573 L7.10542736e-15,24.5950428 C7.10542736e-15,22.9194366 0.901537351,21.3711127 2.36501166,20.5333096 L37.1349883,0.628352311 C38.5984626,-0.20945077 40.4015373,-0.20945077 41.8650116,0.628352311 L76.6349883,20.5333096 C78.0984627,21.3711127 79,22.9194366 79,24.5950428 Z M31.1611111,39.7112664 L31.1611111,48.9751391 L39.7109553,53.8724392 L47.8388889,49.216807 L47.8388889,39.5795431 L39.6151152,34.8690143 L31.1611111,39.7112664 Z" id="Combined-Shape-Copy" fill="#FFFFFF" fill-rule="nonzero"></path>
    </g>
</svg>
