<?xml version="1.0" encoding="UTF-8"?>
<svg width="544px" height="240px" viewBox="0 0 544 240" version="1.1" xmlns="http://www.w3.org/2000/svg" xmlns:xlink="http://www.w3.org/1999/xlink">
    <!-- Generator: Sketch 52.6 (67491) - http://www.bohemiancoding.com/sketch -->
    <title>rdl-logo-short- copy@1x</title>
    <desc>Created with Sketch.</desc>
    <g id="rdl-logo-short--copy" stroke="none" stroke-width="1" fill="none" fill-rule="evenodd">
        <g id="Group" fill="#FFFFFF">
            <path d="M268.984199,134.085714 L268.984199,174.371429 C268.984199,177.971429 267.954106,179 264.348779,179 L245.635419,179 C242.030093,179 241,177.971429 241,174.371429 L241,63.6285714 C241,60.0285714 242.030093,59 245.635419,59 L292.332978,59 C311.904749,59 335.596893,68.7714286 335.596893,96.5428571 C335.596893,116.6 323.235774,127.4 308.814469,131.685714 L335.768575,173 C338.000443,176.428571 336.455304,179 331.819884,179 L312.934842,179 C309.329516,179 307.269329,177.628571 305.037461,174.371429 L278.770084,134.085714 L268.984199,134.085714 Z M268.984199,109.571429 L289.757745,109.571429 C301.775499,109.571429 307.269329,105.457143 307.269329,96.5428571 C307.269329,87.6285714 301.775499,83.5142857 289.757745,83.5142857 L268.984199,83.5142857 L268.984199,109.571429 Z M349.922814,59 L393.873458,59 C428.553262,59 455.507368,84.0285714 455.507368,119 C455.507368,153.971429 428.553262,179 393.873458,179 L349.922814,179 C346.317488,179 345.287395,177.971429 345.287395,174.371429 L345.287395,63.6285714 C345.287395,60.0285714 346.317488,59 349.922814,59 Z M393.873458,83.5142857 L373.271594,83.5142857 L373.271594,154.485714 L393.873458,154.485714 C415.677097,154.485714 427.179805,138.542857 427.179805,119 C427.179805,99.4571429 415.677097,83.5142857 393.873458,83.5142857 Z M491.980293,155.342857 L539.364581,155.342857 C542.969907,155.342857 544,156.371429 544,159.971429 L544,174.371429 C544,177.971429 542.969907,179 539.364581,179 L468.631514,179 C465.026188,179 463.996094,177.971429 463.996094,174.371429 L463.996094,63.6285714 C463.996094,60.0285714 465.026188,59 468.631514,59 L487.344874,59 C490.9502,59 491.980293,60.0285714 491.980293,63.6285714 L491.980293,155.342857 Z" id="RDL"></path>
            <g id="Hex-Icon" fill-rule="nonzero">
                <path d="M146.854613,190.840345 L86.6086957,155.94377 L86.6086957,199.154678 L103.28503,208.805184 C107.160544,211.047924 111.935374,211.047924 115.810888,208.805184 L146.854613,190.840345 Z M65.7391304,187.077571 L65.7391304,143.855377 L65.1276778,143.501202 L65.7391304,142.437478 L65.7391304,119.757898 L29.4470627,140.778967 L29.4470627,158.826895 C29.4470627,163.312374 31.8344779,167.457128 35.709992,169.699867 L65.7391304,187.077571 Z M0.52173913,133.912177 L0.389529669,133.682169 L0.52173913,133.605591 L0.52173913,80.8916113 C0.52173913,65.9639036 8.46982691,52.1701329 21.3720347,44.7062791 L88.9757914,5.59789037 C101.877999,-1.86596346 117.774175,-1.86596346 130.676383,5.59789037 L198.280139,44.7062791 C211.182347,52.1701329 219.130435,65.9639036 219.130435,80.8916113 L219.130435,159.108389 C219.130435,174.036096 211.182347,187.829867 198.280139,195.293721 L130.676383,234.40211 C117.774175,241.865963 101.877999,241.865963 88.9757914,234.40211 L21.3720347,195.293721 C8.46982691,187.829867 0.52173913,174.036096 0.52173913,159.108389 L0.52173913,133.912177 Z M29.4470627,116.851483 L89.0637003,82.3203701 L51.5376129,60.5839277 L35.709992,69.7432883 C31.8344779,71.9860278 29.4470627,76.1307815 29.4470627,80.6162606 L29.4470627,116.851483 Z M72.2107017,48.6205205 L132.521739,83.5548152 L132.521739,40.3084523 L115.810888,30.6379711 C111.935374,28.3952316 107.160544,28.3952316 103.28503,30.6379711 L72.2107017,48.6205205 Z M153.391304,52.3855594 L153.391304,120.106169 L189.648855,99.1045085 L189.648855,80.6162606 C189.648855,76.1307815 187.26144,71.9860278 183.385926,69.7432883 L153.391304,52.3855594 Z M189.648855,123.042503 L130.391618,157.366399 L167.527701,178.876938 L183.385926,169.699867 C187.26144,167.457128 189.648855,163.312374 189.648855,158.826895 L189.648855,123.042503 Z M86.6086957,107.669841 L86.6086957,132.005776 L109.728179,145.397402 L132.521739,132.194563 L132.521739,107.49281 L109.718354,94.2842789 L86.6086957,107.669841 Z" id="Combined-Shape"></path>
            </g>
        </g>
    </g>
</svg>