<?xml version="1.0" encoding="UTF-8"?>
<svg width="457px" height="500px" viewBox="0 0 457 500" version="1.1" xmlns="http://www.w3.org/2000/svg" xmlns:xlink="http://www.w3.org/1999/xlink">
    <!-- Generator: Sketch 52.6 (67491) - http://www.bohemiancoding.com/sketch -->
    <title>rdl-icon-</title>
    <desc>Created with Sketch.</desc>
    <defs>
        <path d="M179.609119,0.244829203 L0.00485767026,105.756836 L179.609119,0.244829203 Z" id="path-1"></path>
    </defs>
    <g id="rdl-icon-" stroke="none" stroke-width="1" fill="none" fill-rule="evenodd">
        <g id="Combined-Shape-path-+-Combined-Shape-path-+-Combined-Shape-path-+-Combined-Shape-path-+-Combined-Shape-path-Mask" transform="translate(128.000000, 320.000000)">
            <g>
                <mask id="mask-2" fill="white">
                    <use xlink:href="#path-1"></use>
                </mask>
                <g id="Mask"></g>
                <path d="M127.858739,42.8554474 L127.858739,243.734076 L127.858739,42.8554474 Z" id="Combined-Shape-path" mask="url(#mask-2)"></path>
                <polygon id="Combined-Shape-path" mask="url(#mask-2)" points="131.917592 99.669605 303.193854 202.023987 308.477714 205.181612"></polygon>
                <path d="M192.800393,127.062145 L371.389941,24.5937539 L192.800393,127.062145 Z" id="Combined-Shape-path" mask="url(#mask-2)"></path>
                <path d="M243.53606,97.6405279 L243.53606,-121.499794 L243.53606,97.6405279 Z" id="Combined-Shape-path" mask="url(#mask-2)"></path>
                <path d="M235.418353,26.6228309 L54.7993782,-78.889176 L235.418353,26.6228309 Z" id="Combined-Shape-path" mask="url(#mask-2)"></path>
            </g>
        </g>
        <g id="Hex-Icon" fill="#FF5720" fill-rule="nonzero">
            <path d="M305.94711,397.584052 L180.434783,324.882855 L180.434783,414.905579 L215.177145,435.010801 C223.251133,439.683175 233.198696,439.683175 241.272684,435.010801 L305.94711,397.584052 Z M136.956522,389.744939 L136.956522,299.698702 L135.682662,298.960837 L136.956522,296.744745 L136.956522,249.495621 L61.3480474,293.289515 L61.3480474,330.889364 C61.3480474,340.234112 66.321829,348.869016 74.3958168,353.54139 L136.956522,389.744939 Z M1.08695652,278.983702 L0.811520144,278.504519 L1.08695652,278.344981 L1.08695652,168.52419 C1.08695652,137.424799 17.6454727,108.687777 44.5250723,93.1380814 L185.366232,11.6622716 C212.245832,-3.88742387 245.362864,-3.88742387 272.242464,11.6622716 L413.083623,93.1380814 C439.963223,108.687777 456.521739,137.424799 456.521739,168.52419 L456.521739,331.47581 C456.521739,362.575201 439.963223,391.312223 413.083623,406.861919 L272.242464,488.337728 C245.362864,503.887424 212.245832,503.887424 185.366232,488.337728 L44.5250723,406.861919 C17.6454727,391.312223 1.08695652,362.575201 1.08695652,331.47581 L1.08695652,278.983702 Z M61.3480474,243.440589 L185.549376,171.500771 L107.370027,126.216516 L74.3958168,145.298517 C66.321829,149.970891 61.3480474,158.605795 61.3480474,167.950543 L61.3480474,243.440589 Z M150.438962,101.292751 L276.086957,174.072532 L276.086957,83.9759423 L241.272684,63.8291066 C233.198696,59.1567325 223.251133,59.1567325 215.177145,63.8291066 L150.438962,101.292751 Z M319.565217,109.136582 L319.565217,250.221186 L395.101781,206.467726 L395.101781,167.950543 C395.101781,158.605795 390.128,149.970891 382.054012,145.298517 L319.565217,109.136582 Z M395.101781,256.338548 L271.649203,327.846665 L349.016045,372.660287 L382.054012,353.54139 C390.128,348.869016 395.101781,340.234112 395.101781,330.889364 L395.101781,256.338548 Z M180.434783,224.312169 L180.434783,275.012033 L228.600374,302.911254 L276.086957,275.405339 L276.086957,223.943353 L228.579904,196.425581 L180.434783,224.312169 Z" id="Combined-Shape"></path>
        </g>
    </g>
</svg>