<svg viewBox="0 0 500 500" xmlns="http://www.w3.org/2000/svg">
    <defs>
        <path d="M179.609119,0.244829203 L0.00485767026,105.756836 L179.609119,0.244829203 Z" id="path-1"></path>
    </defs>
    <g id="rdl-icon-padded-" stroke="none" stroke-width="1" fill="none" fill-rule="evenodd">
        <g id="Combined-Shape-path-+-Combined-Shape-path-+-Combined-Shape-path-+-Combined-Shape-path-+-Combined-Shape-path-Mask" transform="translate(121.000000, 320.000000)">
            <g>
                <mask id="mask-2" fill="white">
                    <use xlink:href="#path-1"></use>
                </mask>
                <g id="Mask"></g>
                <path d="M127.858739,42.8554474 L127.858739,243.734076 L127.858739,42.8554474 Z" id="Combined-Shape-path" mask="url(#mask-2)"></path>
                <polygon id="Combined-Shape-path" mask="url(#mask-2)" points="131.917592 99.669605 303.193854 202.023987 308.477714 205.181612"></polygon>
                <path d="M192.800393,127.062145 L371.389941,24.5937539 L192.800393,127.062145 Z" id="Combined-Shape-path" mask="url(#mask-2)"></path>
                <path d="M243.53606,97.6405279 L243.53606,-121.499794 L243.53606,97.6405279 Z" id="Combined-Shape-path" mask="url(#mask-2)"></path>
                <path d="M235.418353,26.6228309 L54.7993782,-78.889176 L235.418353,26.6228309 Z" id="Combined-Shape-path" mask="url(#mask-2)"></path>
            </g>
        </g>
        <path d="M95.5281501,290.883375 L95.5281501,339.095744 L164.2,378.704059 L164.2,251.208268 L95.5281501,290.883375 Z M208.2,404.082229 L250,428.191489 L319.844676,387.906716 L208.2,323.402078 L208.2,404.082229 Z M363.823058,362.541015 L404.47185,339.095744 L404.47185,259.525889 L294.998125,322.776222 L363.823058,362.541015 Z M404.47185,208.750919 L404.47185,160.904255 L335.8,121.295941 L335.8,248.427265 L404.47185,208.750919 Z M291.8,95.9177716 L250,71.8085106 L182.105537,110.968446 L291.8,174.346315 L291.8,95.9177716 Z M138.127154,136.334147 L95.5281501,160.904255 L95.5281501,240.108801 L206.636012,175.916322 L138.127154,136.334147 Z M448,149.356958 L448,350.643043 C448,359.115207 443.480901,366.943813 436.145005,371.179895 L261.854995,471.822938 C254.519098,476.059021 245.480901,476.059021 238.145004,471.822938 L63.8549951,371.179895 C56.5190986,366.943813 52,359.115207 52,350.643043 L52,149.356958 C52,140.884792 56.5190986,133.056188 63.8549951,128.820104 L238.145004,28.1770622 C245.480901,23.9409793 254.519098,23.9409793 261.854995,28.1770622 L436.145005,128.820104 C443.480901,133.056188 448,140.884792 448,149.356958 Z M208.2,225.787302 L208.2,272.627108 L251.057447,297.388737 L291.8,273.849024 L291.8,225.121285 L250.577033,201.304005 L208.2,225.787302 Z" id="Combined-Shape" fill="#C5C5C6" fill-rule="nonzero"></path>
    </g>
</svg>
